<svg xmlns="http://www.w3.org/2000/svg" viewBox="0 0 64 64" width="64" height="64">
<defs><linearGradient id="g" x1="0" y1="0" x2="0" y2="1"><stop offset="0" stop-color="#a78bfa"/><stop offset="1" stop-color="#6d28d9"/></linearGradient></defs>
<rect x="2" y="2" width="60" height="60" rx="15" fill="url(#g)"/>
<path d="M22 22h20a9 9 0 0 1 8.6 11.6l-2.4 8.4a5 5 0 0 1-8.6 1.8L36 40h-8l-3.6 3.8a5 5 0 0 1-8.6-1.8l-2.4-8.4A9 9 0 0 1 22 22z" stroke="#fff" stroke-width="3.5" stroke-linecap="round" stroke-linejoin="round" fill="none"/><path d="M24 28v8M20 32h8" stroke="#fff" stroke-width="3.5" stroke-linecap="round" stroke-linejoin="round" fill="none"/><circle cx="40" cy="30" r="1.8" fill="#fff"/><circle cx="44" cy="34" r="1.8" fill="#fff"/>
</svg>
